<?xml version="1.0" encoding="UTF-8"?>
<!DOCTYPE svg PUBLIC "-//W3C//DTD SVG 1.1//EN" "http://www.w3.org/Graphics/SVG/1.1/DTD/svg11.dtd">
<svg version="1.1" xmlns="http://www.w3.org/2000/svg" xmlns:xlink="http://www.w3.org/1999/xlink" x="0" y="0" width="300" height="300" viewBox="0, 0, 300, 300">
  <defs>
    <clipPath id="Clip_1">
      <path d="M23.841,23 L277.168,23 L277.168,184.212 L23.841,184.212 z M150.506,31 L150.487,31 C83.138,32.703 30.874,83.999 29.844,150.782 L29.841,150.989 L29.986,151.138 L53.986,175.848 L54.339,176.212 L78.698,151.854 L78.839,151.712 L78.844,151.513 C79.706,117.39 116.657,80.102 150.346,80 C184.831,80.873 221.237,117.014 221.844,151.509 L221.853,152.007 L222.352,152 L270.663,151.29 L271.168,151.282 L271.155,150.777 C269.462,83.733 217.385,31.838 150.506,31 z"/>
    </clipPath>
    <filter id="Shadow_2">
      <feGaussianBlur in="SourceAlpha" stdDeviation="2.5"/>
      <feOffset dx="0" dy="2" result="offsetblur"/>
      <feFlood flood-color="#000000"/>
      <feComposite in2="offsetblur" operator="in"/>
    </filter>
    <clipPath id="Clip_3">
      <path d="M23.812,117.788 L277.159,117.788 L277.159,279 L23.812,279 z M246.661,125.788 L246.302,126.146 L222.302,150.146 L222.161,150.288 L222.156,150.487 C221.294,184.61 184.343,221.898 150.654,222 C116.169,221.127 79.763,184.986 79.156,150.491 L79.134,149.29 L78.297,150.151 L54.341,174.786 L30.7,150.859 L29.812,149.961 L29.844,151.223 C31.538,218.267 83.615,270.162 150.493,271 L150.512,271 C217.862,269.297 270.126,218.001 271.156,151.218 L271.159,151.01 L271.014,150.862 L247.014,126.152 L246.661,125.788 z"/>
    </clipPath>
    <filter id="Shadow_4">
      <feGaussianBlur in="SourceAlpha" stdDeviation="2.5"/>
      <feOffset dx="0" dy="2" result="offsetblur"/>
      <feFlood flood-color="#000000"/>
      <feComposite in2="offsetblur" operator="in"/>
    </filter>
  </defs>
  <g id="Layer_1">
    <g>
      <g>
        <path d="M150.506,31 C217.385,31.838 269.462,83.733 271.155,150.777 L271.168,151.282 L270.663,151.29 L222.352,152 L221.853,152.007 L221.844,151.509 C221.237,117.014 184.831,80.873 150.346,80 C116.657,80.102 79.706,117.39 78.844,151.513 L78.839,151.712 L78.698,151.854 L54.339,176.212 L53.986,175.848 L29.986,151.138 L29.841,150.989 L29.844,150.782 C30.874,83.999 83.138,32.703 150.487,31 L150.506,31 z" clip-path="url(#Clip_1)" filter="url(#Shadow_2)" fill="rgba(0,0,0,0.75)"/>
        <path d="M150.5,31.5 C217.337,32.337 268.974,84.243 270.656,150.79 L222.344,151.5 C221.727,116.468 184.838,80.373 150.344,79.5 C116.055,79.604 79.204,117.447 78.344,151.5 L54.344,175.5 L30.344,150.79 C31.38,83.587 84.128,33.179 150.5,31.5 z" fill="#FF0000"/>
        <path d="M150.5,31.5 C217.337,32.337 268.974,84.243 270.656,150.79 L222.344,151.5 C221.727,116.468 184.838,80.373 150.344,79.5 C116.055,79.604 79.204,117.447 78.344,151.5 L54.344,175.5 L30.344,150.79 C31.38,83.587 84.128,33.179 150.5,31.5 z" fill-opacity="0" stroke="#000000" stroke-width="1"/>
      </g>
      <g>
        <path d="M246.661,125.788 L247.014,126.152 L271.014,150.862 L271.159,151.01 L271.156,151.218 C270.126,218.001 217.862,269.297 150.512,271 L150.493,271 C83.615,270.162 31.538,218.267 29.844,151.223 L29.812,149.961 L30.7,150.859 L54.341,174.786 L78.297,150.151 L79.134,149.29 L79.156,150.491 C79.763,184.986 116.169,221.127 150.654,222 C184.343,221.898 221.294,184.61 222.156,150.487 L222.161,150.288 L222.302,150.146 L246.302,126.146 L246.661,125.788 z" clip-path="url(#Clip_3)" filter="url(#Shadow_4)" fill="rgba(0,0,0,0.75)"/>
        <path d="M150.5,270.5 C83.663,269.663 32.026,217.757 30.344,151.21 L54.344,175.5 L78.656,150.5 C79.273,185.532 116.162,221.627 150.656,222.5 C184.945,222.396 221.796,184.553 222.656,150.5 L246.656,126.5 L270.656,151.21 C269.62,218.413 216.872,268.821 150.5,270.5 z" fill="#0066FF"/>
        <path d="M150.5,270.5 C83.663,269.663 32.026,217.757 30.344,151.21 L54.344,175.5 L78.656,150.5 C79.273,185.532 116.162,221.627 150.656,222.5 C184.945,222.396 221.796,184.553 222.656,150.5 L246.656,126.5 L270.656,151.21 C269.62,218.413 216.872,268.821 150.5,270.5 z" fill-opacity="0" stroke="#000000" stroke-width="1"/>
      </g>
    </g>
  </g>
  <g id="Layer_2">
    <g>
      <g>
        <path d="M216.911,234.699 L206.586,221.023 L203.579,223.293 L213.904,236.969 z" fill="#FFFFFF"/>
        <path d="M209.554,240.266 L201.006,225.414 L197.948,227.174 L203.671,237.117 L203.629,237.141 L191.729,230.754 L188.463,232.633 L197.011,247.485 L200.069,245.725 L194.334,235.762 L194.376,235.738 L206.309,242.134 z" fill="#FFFFFF"/>
        <path d="M190.846,250.257 L185.412,234.006 L182.066,235.124 L185.704,246.004 L185.658,246.02 L175.26,237.4 L171.687,238.595 L177.121,254.846 L180.466,253.728 L176.821,242.825 L176.867,242.81 L187.295,251.445 z" fill="#FFFFFF"/>
        <path d="M166.431,248.159 Q166.564,249.279 166.439,250.357 Q166.313,251.436 165.863,252.323 Q165.413,253.211 164.59,253.804 Q163.766,254.398 162.503,254.549 Q161.24,254.699 160.3,254.316 Q159.36,253.932 158.714,253.175 Q158.068,252.418 157.693,251.4 Q157.317,250.381 157.184,249.261 Q157.056,248.188 157.186,247.146 Q157.315,246.103 157.767,245.227 Q158.218,244.352 159.042,243.758 Q159.866,243.165 161.129,243.014 Q162.392,242.864 163.332,243.247 Q164.272,243.631 164.916,244.376 Q165.561,245.121 165.932,246.104 Q166.303,247.087 166.431,248.159 z M170.172,247.713 Q169.951,245.854 169.187,244.314 Q168.423,242.773 167.209,241.71 Q165.995,240.646 164.353,240.153 Q162.711,239.659 160.757,239.892 Q158.779,240.128 157.311,240.992 Q155.842,241.855 154.912,243.175 Q153.982,244.494 153.601,246.171 Q153.221,247.848 153.442,249.707 Q153.67,251.613 154.436,253.177 Q155.203,254.742 156.42,255.829 Q157.637,256.917 159.268,257.423 Q160.9,257.93 162.878,257.694 Q164.832,257.461 166.311,256.584 Q167.789,255.707 168.717,254.364 Q169.644,253.021 170.022,251.32 Q170.399,249.62 170.172,247.713 z" fill="#FFFFFF"/>
        <path d="M141.887,240.585 L135.104,257.318 L138.984,257.569 L143.618,245.796 L143.666,245.799 L146.695,258.068 L150.551,258.318 L146.126,240.86 z" fill="#FFFFFF"/>
        <path d="M130.11,245.59 L126.502,251.203 L126.455,251.192 L125.787,244.577 z M127.361,255.743 L137.58,240.538 L133.888,239.672 L131.709,243.081 L125.47,241.619 L125.079,237.608 L121.27,236.715 L123.599,254.861 z" fill="#FFFFFF"/>
        <path d="M113.335,248.22 L118.499,235.242 L114.998,233.849 L109.834,246.827 L105.062,244.929 L103.891,247.872 L116.936,253.063 L118.107,250.119 z" fill="#FFFFFF"/>
        <path d="M99.616,245.671 L108.48,231.006 L97.348,224.277 L95.709,226.988 L103.617,231.768 L101.444,235.362 L94.338,231.067 L92.823,233.573 L99.93,237.868 L98.03,241.011 L90.287,236.33 L88.648,239.042 z" fill="#FFFFFF"/>
      </g>
      <g>
        <path d="M93.86,70.049 Q93.266,69.09 92.924,68.06 Q92.582,67.029 92.616,66.035 Q92.649,65.04 93.145,64.154 Q93.641,63.268 94.722,62.599 Q95.804,61.929 96.818,61.88 Q97.832,61.83 98.737,62.244 Q99.642,62.657 100.412,63.422 Q101.183,64.187 101.776,65.146 Q102.345,66.064 102.668,67.064 Q102.991,68.064 102.951,69.048 Q102.911,70.033 102.416,70.919 Q101.92,71.804 100.838,72.474 Q99.757,73.144 98.743,73.193 Q97.729,73.242 96.83,72.839 Q95.931,72.436 95.18,71.702 Q94.428,70.967 93.86,70.049 z M90.656,72.033 Q91.642,73.625 92.985,74.699 Q94.327,75.773 95.877,76.224 Q97.427,76.676 99.124,76.429 Q100.82,76.183 102.494,75.147 Q104.187,74.098 105.153,72.695 Q106.119,71.293 106.406,69.704 Q106.692,68.115 106.329,66.434 Q105.966,64.754 104.98,63.162 Q103.969,61.53 102.614,60.436 Q101.258,59.341 99.696,58.869 Q98.133,58.397 96.44,58.627 Q94.748,58.857 93.054,59.905 Q91.381,60.942 90.411,62.361 Q89.441,63.78 89.167,65.39 Q88.894,66.999 89.27,68.7 Q89.645,70.401 90.656,72.033 z" fill="#FFFFFF"/>
        <path d="M112.087,59.535 L110.239,54.743 L112.971,53.69 Q113.576,53.457 114.171,53.331 Q114.765,53.204 115.29,53.298 Q115.814,53.391 116.253,53.762 Q116.692,54.133 116.985,54.895 Q117.279,55.656 117.203,56.226 Q117.126,56.795 116.8,57.217 Q116.474,57.638 115.949,57.944 Q115.423,58.249 114.819,58.482 z M105.67,53.366 L111.834,69.355 L115.35,68 L113.14,62.267 L116.835,60.843 Q118.335,60.265 119.219,59.422 Q120.104,58.58 120.488,57.609 Q120.872,56.637 120.816,55.592 Q120.761,54.546 120.389,53.583 Q120.01,52.597 119.353,51.796 Q118.697,50.994 117.76,50.532 Q116.823,50.07 115.603,50.039 Q114.382,50.008 112.881,50.587 z" fill="#FFFFFF"/>
        <path d="M123.583,47.072 L126.884,63.888 L139.648,61.382 L139.038,58.274 L129.971,60.053 L129.162,55.932 L137.311,54.333 L136.747,51.459 L128.598,53.059 L127.891,49.455 L136.77,47.713 L136.159,44.604 z" fill="#FFFFFF"/>
        <path d="M145.903,51.698 L145.864,46.874 L149.992,46.841 Q151.288,46.83 151.94,47.389 Q152.593,47.948 152.603,49.196 Q152.613,50.492 151.97,51.073 Q151.327,51.654 150.031,51.665 z M142.073,43.976 L142.21,61.112 L145.978,61.081 L145.924,54.386 L149.692,54.356 Q151.108,54.344 151.737,54.963 Q152.366,55.582 152.569,56.925 Q152.721,57.955 152.802,59.083 Q152.883,60.21 153.202,61.024 L156.969,60.993 Q156.703,60.636 156.566,60.121 Q156.43,59.606 156.366,59.03 Q156.301,58.455 156.273,57.903 Q156.244,57.351 156.217,56.943 Q156.164,56.296 156.027,55.649 Q155.889,55.002 155.597,54.464 Q155.305,53.927 154.846,53.534 Q154.387,53.142 153.689,52.955 L153.689,52.907 Q155.124,52.32 155.751,51.211 Q156.378,50.102 156.366,48.59 Q156.358,47.606 156.003,46.757 Q155.649,45.908 154.984,45.265 Q154.318,44.622 153.391,44.258 Q152.464,43.893 151.312,43.902 z" fill="#FFFFFF"/>
        <path d="M164.971,55.563 L168.274,49.765 L168.321,49.774 L169.342,56.343 z M167.173,45.278 L157.782,61.008 L161.515,61.675 L163.509,58.154 L169.817,59.281 L170.422,63.265 L174.273,63.953 L170.977,45.957 z" fill="#FFFFFF"/>
        <path d="M181.636,52.04 L177.124,65.259 L180.69,66.476 L185.202,53.257 L190.062,54.916 L191.086,51.918 L177.798,47.383 L176.775,50.381 z" fill="#FFFFFF"/>
        <path d="M195.455,53.896 L187.341,68.989 L198.798,75.148 L200.298,72.358 L192.16,67.983 L194.149,64.283 L201.463,68.216 L202.849,65.637 L195.535,61.705 L197.274,58.47 L205.243,62.755 L206.743,59.964 z" fill="#FFFFFF"/>
      </g>
    </g>
  </g>
</svg>
